<svg xmlns="http://www.w3.org/2000/svg" viewBox="248.1 101 288.3 290.2">
<g>
	<ellipse fill="none" stroke="#FFFFFF" stroke-width="9" stroke-miterlimit="10" cx="392.3" cy="246" rx="139.7" ry="140.6"/>
	<g>
		<path fill="#FFFFFF" d="M351,232.2c-8,0-15.4-3.1-21-8.7c-5.6-5.6-8.7-13.1-8.7-21s3.1-15.4,8.7-21c5.6-5.6,13.1-8.7,21-8.7c8,0,15.4,3.1,21,8.7
			c5.6,5.6,8.7,13.1,8.7,21s-3.1,15.4-8.7,21C366.5,229.2,359,232.2,351,232.2z M351,181.6c-5.5,0-10.8,2.2-14.7,6.1
			c-3.9,4-6.1,9.2-6.1,14.7s2.2,10.8,6.1,14.7c4,3.9,9.2,6.1,14.7,6.1c5.5,0,10.8-2.2,14.7-6.1c3.9-4,6.1-9.2,6.1-14.7
			s-2.2-10.8-6.1-14.7C361.8,183.8,356.6,181.6,351,181.6z"/>
		<path fill="#FFFFFF" d="M435.4,316.6c-8,0-15.4-3.1-21-8.7c-5.6-5.6-8.7-13.1-8.7-21c0-8,3.1-15.4,8.7-21c5.6-5.6,13.1-8.7,21-8.7l0,0
			c8,0,15.4,3.1,21,8.7c5.6,5.6,8.7,13.1,8.7,21c0,8-3.1,15.4-8.7,21C450.9,313.5,443.3,316.6,435.4,316.6z M435.4,265.9
			c-5.5,0-10.8,2.2-14.7,6.1c-4,4-6.1,9.2-6.1,14.7s2.2,10.8,6.1,14.7c4,4,9.2,6.1,14.7,6.1c5.5,0,10.8-2.2,14.7-6.1
			c4-4,6.1-9.2,6.1-14.7s-2.2-10.8-6.1-14.7C446.2,268.1,441,265.9,435.4,265.9z"/>
	</g>
	<path fill="#FFFFFF" d="M343.5,298.7c-1.1,0-2.3-0.4-3.1-1.3c-1.7-1.7-1.7-4.6,0-6.3l99.5-99.5c1.7-1.7,4.6-1.7,6.3,0c1.7,1.7,1.7,4.6,0,6.3
		l-99.5,99.5C345.8,298.2,344.6,298.7,343.5,298.7z"/>
</g>
</svg>
